<svg id="svg" version="1.1" width="400" height="325.0111061750333" viewBox="0 0 400 325.0111061750333" xmlns="http://www.w3.org/2000/svg" xmlns:xlink="http://www.w3.org/1999/xlink" ><g id="svgg"><path id="path0" d="M269.836 0.196 C 220.893 4.713,186.702 50.264,196.323 98.134 L 196.814 100.578 195.716 100.578 C 194.139 100.578,188.414 100.112,183.563 99.589 C 136.891 94.558,92.636 75.390,57.049 44.792 C 47.039 36.185,34.660 23.525,28.293 15.384 C 27.797 14.749,27.840 14.706,26.464 17.237 C 6.577 53.812,17.907 100.765,52.243 124.069 C 52.804 124.450,51.698 124.493,48.601 124.211 C 38.467 123.289,28.715 120.525,19.554 115.977 C 17.751 115.082,16.198 114.318,16.105 114.280 C 15.999 114.237,15.978 115.629,16.049 118.012 C 17.044 151.498,38.233 180.836,69.885 192.553 C 72.294 193.445,77.971 195.114,79.831 195.477 C 81.699 195.842,81.334 195.997,76.110 197.054 C 66.477 199.004,51.429 199.040,45.067 197.129 C 44.183 196.864,47.670 205.650,50.563 210.981 C 64.328 236.341,89.094 252.186,118.069 254.171 L 121.102 254.379 118.969 255.988 C 85.813 281.013,44.514 292.563,2.976 288.429 C 1.339 288.266,-0.000 288.187,-0.000 288.253 C -0.000 288.319,1.219 289.127,2.710 290.048 C 49.501 318.972,102.798 330.224,159.040 323.051 C 242.245 312.440,310.134 258.941,342.248 178.676 C 353.825 149.741,359.454 120.275,359.281 89.508 L 359.233 81.015 361.683 79.173 C 374.246 69.727,386.616 57.208,395.847 44.598 C 398.134 41.474,400.084 38.586,399.979 38.480 C 399.933 38.435,398.780 38.878,397.416 39.466 C 387.362 43.800,375.190 47.462,363.572 49.647 C 360.587 50.209,354.400 51.177,353.798 51.177 C 353.663 51.177,354.695 50.417,356.091 49.488 C 370.949 39.603,381.999 25.545,388.131 8.726 C 389.273 5.595,389.369 5.645,385.962 7.581 C 371.680 15.693,355.403 21.871,339.181 25.336 L 336.915 25.820 334.206 23.170 C 317.299 6.632,293.219 -1.963,269.836 0.196 " stroke="none" fill="#1ca4f4" fill-rule="evenodd"></path><path id="path1" d="" stroke="none" fill="#20a4f4" fill-rule="evenodd"></path><path id="path2" d="" stroke="none" fill="#20a4f4" fill-rule="evenodd"></path><path id="path3" d="" stroke="none" fill="#20a4f4" fill-rule="evenodd"></path><path id="path4" d="" stroke="none" fill="#20a4f4" fill-rule="evenodd"></path></g></svg>